<svg width="504" height="36" viewBox="0 0 504 36" fill="none" xmlns="http://www.w3.org/2000/svg" aria-labelledby="squares-separator-title">
<title id="squares-separator-title" lang="en">Squares separator</title>
<path d="M126.3 17.8L133.5 25L140.7 17.8L133.5 10.6L126.3 17.8ZM157.9 17.8L165.9 25.8L173.9 17.8L165.9 9.8L157.9 17.8ZM94.7 17.8L101 24.1L107.3 17.8L101 11.5L94.7 17.8ZM189.6 17.8L198.4 26.6L207.2 17.8L198.4 9L189.6 17.8ZM31 17.8L35.7 22.5L40.4 17.8L35.8 13L31 17.8ZM62.9 17.8L68.4 23.3L73.9 17.8L68.4 12.3L62.9 17.8ZM0 17.8L3.4 21.2L6.8 17.8L3.4 14.4L0 17.8ZM462.7 17.8L467.4 22.5L472.1 17.8L467.4 13.1L462.7 17.8ZM395.9 17.8L402.2 24.1L408.5 17.8L402.2 11.5L395.9 17.8ZM499.8 14.4L496.4 17.8L499.8 21.2L503.2 17.8L499.8 14.4ZM429.3 17.8L434.8 23.3L440.3 17.8L434.8 12.3L429.3 17.8ZM329.3 17.8L337.3 25.8L345.3 17.8L337.3 9.8L329.3 17.8ZM362.5 17.8L369.7 25L376.9 17.8L369.7 10.6L362.5 17.8ZM295.8 17.8L304.6 26.6L313.4 17.8L304.6 9L295.8 17.8ZM264.3 5.3H256.8L251.6 0L246.3 5.3H238.8V12.8L233.5 18.1L238.8 23.4V30.9H246.3L251.6 36.2L256.9 30.9H264.4V23.4L269.7 18.1L264.4 12.8V5.3H264.3Z" fill="#00CFB7"/>
</svg>